<?xml version="1.0" encoding="utf-8"?>
<!-- Generator: Adobe Illustrator 21.0.2, SVG Export Plug-In . SVG Version: 6.00 Build 0)  -->
<svg version="1.1" id="Layer_1" xmlns="http://www.w3.org/2000/svg" xmlns:xlink="http://www.w3.org/1999/xlink" x="0px" y="0px"
	 viewBox="0 0 80.8 29.7" style="enable-background:new 0 0 80.8 29.7;" xml:space="preserve">
<style type="text/css">
	.st0{fill:#FFFFFF;}
</style>
<g>
	<path class="st0" d="M17.8,19.2c-1.8,2.7-3.5,4.8-5.3,6.1c-1.7,1.4-3.4,2.1-5.1,2.1c-1.3,0-2.4-0.5-3.2-1.4C3.4,25.1,3,23.9,3,22.3
		c0-2.4,0.8-5,2.5-7.8S9.3,9.2,12.1,7C14,5.6,16,4.4,18.3,3.4c2.3-1,4-1.5,5-1.5c0.4,0,0.8,0.3,1.2,0.8s0.6,1,0.6,1.4
		c0,0.2-0.3,0.4-0.9,0.4c-0.3,0-0.6,0-0.8,0.1c-1.1,0.2-2.1,0.6-3.2,1.1s-2.2,1.2-3.5,2.1c-1.4,1-2.7,2.2-3.9,3.6s-2.4,2.9-3.5,4.6
		c-0.8,1.2-1.3,2.3-1.7,3.2c-0.4,0.9-0.5,1.7-0.5,2.5c0,0.8,0.2,1.4,0.5,1.8c0.4,0.4,0.9,0.6,1.5,0.6c1.4,0,3-1,4.7-2.9
		c1.8-1.9,3.6-4.6,5.3-8c0.8-1.6,1.6-3.5,2.4-5.5C21.9,7.4,22,7.3,22,7.1c0.2-0.5,0.4-0.8,0.6-0.9C22.8,6.1,23.2,6,23.6,6
		c0.6,0,1.1,0.1,1.5,0.4c0.5,0.3,0.7,0.5,0.7,0.9c0,0.1-0.3,0.8-1,2.2c-0.6,1.4-1.2,2.9-1.8,4.3c-1,2.5-1.8,4.6-2.3,6.3
		c-0.6,1.7-0.8,2.9-0.8,3.5c0,0.5,0.2,0.9,0.5,1.1c0.3,0.2,1,0.3,1.9,0.4l-0.6,2.2h-0.4c-1.7,0-2.9-0.2-3.7-0.6
		c-0.8-0.4-1.1-1.1-1.1-2.1c0-0.8,0.5-2.5,1.4-5.2L17.8,19.2z"/>
	<path class="st0" d="M21.6,27.3l0.6-2.2c0.7,0,1.3-0.1,1.8-0.3c0.6-0.2,1.1-0.4,1.6-0.7c-0.3-0.5-0.4-1-0.6-1.5
		c-0.1-0.5-0.2-1.2-0.2-1.9c0-2.3,0.8-4.4,2.5-6.2c1.7-1.8,3.6-2.6,5.7-2.6c1.1,0,2,0.3,2.6,0.8c0.7,0.5,1,1.2,1,2
		c0,0.6-0.2,1-0.5,1.4c-0.3,0.4-0.7,0.6-1.2,0.6c-0.2,0-0.3,0-0.4-0.1c-0.1,0-0.1-0.2-0.1-0.4c0-0.5-0.1-0.9-0.3-1.1
		c-0.2-0.2-0.6-0.4-1.1-0.4c-1.1,0-2.1,0.6-2.9,1.8c-0.9,1.2-1.3,2.5-1.3,4.1s0.5,2.7,1.4,3.4c1,0.7,2.5,1.1,4.6,1.1l-0.6,2.2
		c-0.2,0-0.4,0-0.5,0.1c0,0-0.1,0-0.1,0c-1.5,0-2.8-0.2-3.9-0.5c-1.1-0.3-2-0.7-2.7-1.3c-0.7,0.5-1.6,1-2.5,1.2
		C23.7,27.1,22.7,27.3,21.6,27.3z"/>
	<path class="st0" d="M38.2,25.7c-0.5,0.5-1,0.9-1.7,1.1c-0.6,0.3-1.3,0.4-2.1,0.5l0.6-2.2c1.1-0.1,2-0.5,2.7-1.4
		c0.7-0.9,1.4-2.4,2.1-4.5l3.4-10.5c0.2-0.8,0.5-1.7,0.8-2.8c0.5-1.9,1.4-2.9,2.6-2.9c0.9,0,1.4,0.1,1.8,0.2
		c0.3,0.1,0.5,0.3,0.5,0.6c0,0.3-0.2,1-0.6,2c-0.2,0.4-0.3,0.7-0.4,1L42.6,20c1.7-2.7,3.2-4.7,4.6-6c1.4-1.3,2.8-1.9,4.1-1.9
		c0.7,0,1.2,0.2,1.6,0.5c0.4,0.4,0.6,0.9,0.6,1.5c0,0.7-0.6,2.7-1.9,5.8l-0.4,1c-0.3,0.6-0.5,1.3-0.6,1.8s-0.2,1-0.2,1.2
		c0,0.4,0.2,0.7,0.5,0.8c0.3,0.2,0.9,0.3,1.8,0.3L52,27.3h-0.4c-1.8,0-3.1-0.2-3.9-0.7c-0.8-0.5-1.2-1.2-1.2-2.2
		c0-0.5,0.2-1.2,0.5-2.1c0.3-1,0.8-2.2,1.4-3.7l0.1-0.3c0.5-1.2,0.8-2,0.8-2.2c0-0.2,0-0.3-0.1-0.4c-0.1-0.1-0.2-0.1-0.4-0.1
		c-0.6,0-1.6,0.8-3,2.4c-1.3,1.6-2.5,3.6-3.5,5.9c-0.2,0.5-0.4,1-0.7,1.7c-0.5,1.2-1.3,1.8-2.7,1.8c-0.4,0-0.7,0-0.9-0.1
		s-0.3-0.2-0.3-0.4c0-0.1,0-0.3,0.1-0.4C38,26.2,38.1,26,38.2,25.7z"/>
	<path class="st0" d="M58.3,25.7c-1,0.5-2.1,0.9-3.1,1.1c-1.1,0.3-2.1,0.4-3.2,0.5l0.6-2.2c0.7-0.1,1.4-0.2,2.1-0.3
		c0.6-0.2,1.2-0.4,1.8-0.6c-0.4-0.5-0.7-1.2-0.9-1.8c-0.2-0.7-0.3-1.5-0.3-2.4c0-2.2,0.7-4,2.2-5.6c1.5-1.6,3.2-2.4,5.2-2.4
		c1.1,0,2,0.3,2.7,1c0.7,0.7,1,1.6,1,2.8c0,1.3-0.5,2.7-1.4,4.2c-0.9,1.5-2.2,2.9-3.7,4.1c0.5,0.4,0.9,0.7,1.5,0.9
		c0.5,0.2,1.2,0.3,2,0.3h0.2l-0.6,2.2h-0.4c-1.2,0-2.3-0.1-3.2-0.4C59.8,26.6,59,26.2,58.3,25.7z M60,22.3c1.1-0.7,2.1-1.7,2.8-3
		c0.8-1.2,1.1-2.3,1.1-3.3c0-0.5-0.1-0.8-0.3-1.1c-0.2-0.2-0.6-0.4-1-0.4c-0.9,0-1.7,0.5-2.4,1.6c-0.7,1.1-1,2.3-1,3.7
		c0,0.5,0.1,1,0.2,1.4C59.5,21.6,59.7,22,60,22.3z"/>
	<path class="st0" d="M64.3,27.3l0.6-2.2c1.3,0,2.4-0.7,3.3-2.1s1.7-3.6,2.5-6.7c0.1-0.5,0.3-1.1,0.4-1.9c0.3-1.6,1.4-2.4,3.2-2.4
		c0.4,0,0.7,0.1,1,0.2c0.2,0.1,0.3,0.3,0.3,0.5c0,0.3-0.2,1-0.6,1.9c-0.4,0.9-0.6,1.7-0.8,2.2l-1.6,4.7l-0.1,0.2
		c-0.4,1.1-0.6,1.9-0.6,2.2c0,0.5,0.2,0.8,0.5,0.9c0.3,0.2,0.9,0.3,1.9,0.3l-0.6,2.2h-0.6c-1.4,0-2.4-0.2-3.1-0.5
		c-0.7-0.4-1.1-0.9-1.2-1.7c-0.6,0.7-1.3,1.3-2.1,1.7C66,27.1,65.2,27.3,64.3,27.3z M75.2,7c-0.6,0-1.1-0.2-1.4-0.5
		c-0.3-0.3-0.5-0.8-0.5-1.4c0-0.8,0.2-1.5,0.8-2s1.1-0.8,1.8-0.8c0.6,0,1,0.2,1.4,0.6c0.4,0.4,0.6,0.9,0.6,1.5c0,0.8-0.2,1.5-0.7,2
		C76.6,6.7,75.9,7,75.2,7z"/>
</g>
</svg>
